<svg width="50" height="50" viewBox="0 0 50 50" fill="none" xmlns="http://www.w3.org/2000/svg">
<circle cx="25" cy="25" r="25" fill="#FF9823"/>
<path d="M17.792 32V28.496L24.08 23.696C24.864 23.104 25.416 22.584 25.736 22.136C26.072 21.672 26.24 21.184 26.24 20.672C26.24 20.144 26.064 19.728 25.712 19.424C25.376 19.12 24.928 18.968 24.368 18.968C23.824 18.968 23.296 19.136 22.784 19.472C22.288 19.792 21.704 20.344 21.032 21.128L17.888 18.512C18.848 17.264 19.84 16.352 20.864 15.776C21.888 15.2 23.176 14.912 24.728 14.912C26.568 14.912 28.056 15.416 29.192 16.424C30.344 17.416 30.92 18.712 30.92 20.312C30.92 21.576 30.616 22.632 30.008 23.48C29.4 24.312 28.408 25.216 27.032 26.192L24.152 28.208H31.088V32H17.792Z" fill="white"/>
</svg>
