<svg width="50" height="50" viewBox="0 0 50 50" fill="none" xmlns="http://www.w3.org/2000/svg">
<circle cx="25" cy="25" r="25" fill="#FF9823"/>
<path d="M24.584 32.336C21.608 32.336 19.224 31.344 17.432 29.36L20.36 26.432C21.608 27.712 22.944 28.352 24.368 28.352C25.024 28.352 25.544 28.2 25.928 27.896C26.328 27.576 26.528 27.144 26.528 26.6C26.528 26.056 26.288 25.632 25.808 25.328C25.328 25.024 24.656 24.872 23.792 24.872H21.824L21.152 22.448L25.016 18.968H18.584V15.2H30.728V18.536L26.72 21.968C29.616 22.608 31.064 24.2 31.064 26.744C31.064 28.424 30.456 29.776 29.24 30.8C28.04 31.824 26.488 32.336 24.584 32.336Z" fill="white"/>
</svg>
